<?xml version="1.0" standalone="no"?>
<!DOCTYPE svg PUBLIC "-//W3C//DTD SVG 20010904//EN"
 "http://www.w3.org/TR/2001/REC-SVG-20010904/DTD/svg10.dtd">
<svg version="1.0" xmlns="http://www.w3.org/2000/svg"
 width="150.000000pt" height="40.000000pt" viewBox="0 0 150.000000 40.000000"
 preserveAspectRatio="xMidYMid meet">

<g transform="translate(0.000000,40.000000) scale(0.100000,-0.100000)"
fill="#000000" stroke="none">
<path d="M208 351 c-80 -9 -150 -19 -153 -23 -4 -4 3 -51 15 -105 32 -146 27
-136 66 -130 34 6 34 6 34 -34 0 -21 4 -39 9 -39 4 0 32 19 62 43 46 36 61 43
113 47 l60 5 12 75 c6 41 14 99 17 128 l6 52 -47 -1 c-26 -1 -113 -9 -194 -18z"/>
<path d="M550 320 c0 -20 -5 -30 -15 -30 -8 0 -15 -9 -15 -20 0 -11 7 -20 15
-20 12 0 15 -14 15 -64 0 -77 14 -96 71 -96 32 0 39 4 39 19 0 12 -9 21 -25
25 -23 6 -25 11 -25 61 0 52 1 55 25 55 18 0 25 5 25 20 0 15 -7 20 -25 20
-21 0 -25 5 -25 30 0 27 -3 30 -30 30 -27 0 -30 -3 -30 -30z"/>
<path d="M940 321 c0 -21 -5 -31 -15 -31 -8 0 -15 -9 -15 -20 0 -11 7 -20 15
-20 12 0 15 -14 15 -64 0 -77 14 -96 71 -96 34 0 39 3 39 23 0 18 -5 23 -22
23 -21 -1 -23 4 -26 57 -3 55 -2 57 23 57 18 0 25 5 25 20 0 15 -7 20 -24 20
-19 0 -25 6 -28 28 -2 21 -9 28 -30 30 -25 3 -28 0 -28 -27z"/>
<path d="M690 205 c0 -72 3 -88 20 -105 20 -20 79 -28 94 -13 4 4 23 6 42 4
l34 -3 0 101 0 101 -25 0 c-23 0 -25 -3 -25 -49 0 -68 -14 -101 -43 -101 -37
0 -47 19 -47 87 0 61 -1 63 -25 63 -25 0 -25 -1 -25 -85z"/>
<path d="M1070 190 l0 -100 30 0 c30 0 30 1 30 53 0 59 20 97 51 97 14 0 19 7
19 25 0 19 -5 25 -23 25 -13 0 -28 -5 -35 -12 -9 -9 -12 -9 -12 0 0 7 -13 12
-30 12 l-30 0 0 -100z"/>
<path d="M1220 284 c0 -3 14 -25 31 -49 l32 -44 -38 -50 -37 -51 35 0 c28 0
39 6 55 31 l19 31 19 -31 c15 -25 25 -31 52 -31 36 0 37 -1 -10 64 l-27 38 29
43 c17 24 30 46 30 49 0 3 -13 6 -29 6 -20 0 -34 -8 -46 -27 l-18 -26 -19 26
c-14 19 -29 27 -49 27 -16 0 -29 -3 -29 -6z"/>
</g>
</svg>
